<svg width="38" height="58" viewBox="0 0 38 58" fill="none" xmlns="http://www.w3.org/2000/svg">
<path d="M26.5113 51.667C20.7853 51.667 15.0603 51.667 9.33534 51.667C5.46634 51.667 5.46634 57.667 9.33534 57.667C15.0613 57.667 20.7863 57.667 26.5113 57.667C30.3803 57.667 30.3803 51.667 26.5113 51.667Z" fill="black"/>
<path d="M34.6949 7C28.9689 7 23.2449 7 17.5189 7C13.6499 7 13.6499 13 17.5189 13C23.2449 13 28.9699 13 34.6949 13C38.5639 13 38.5639 7 34.6949 7Z" fill="black"/>
<path d="M25.9805 4.073C25.9805 18.099 25.9805 32.125 25.9805 46.152C25.9805 50.666 32.9805 50.666 32.9805 46.152C32.9805 32.125 32.9805 18.099 32.9805 4.073C32.9805 -0.441 25.9805 -0.441 25.9805 4.073Z" fill="black"/>
<path d="M26.0275 33.9879C25.9045 41.0019 15.7715 46.0059 9.53849 41.0599C5.37549 37.7569 6.42749 28.7149 9.47549 25.1429C14.0845 19.7399 25.4365 22.6489 25.9775 30.0429C26.3055 34.5179 33.3075 34.5489 32.9775 30.0429C32.1785 19.0999 20.6185 13.3379 10.7535 16.2859C0.579493 19.3249 -1.68651 31.6529 1.15449 40.5899C4.04549 49.6879 15.9405 51.5979 23.7795 48.1489C29.3205 45.7109 32.9225 40.0399 33.0275 33.9889C33.1075 29.4729 26.1075 29.4799 26.0275 33.9879Z" fill="black"/>
</svg>
