<svg width="82" height="96" viewBox="0 0 82 96" fill="none" xmlns="http://www.w3.org/2000/svg">
<path d="M71.9992 71.7999C71.0992 70.9999 69.6992 70.9999 68.8992 71.8999C64.1992 76.5999 58.1992 79.0999 52.1992 79.0999C43.3992 79.0999 34.9992 73.6999 30.1992 64.7999H52.9992C54.2992 64.7999 55.2992 63.7999 55.2992 62.4999V54.6999C55.2992 53.3999 54.2992 52.3999 52.9992 52.3999H26.1992C25.9992 50.8999 25.9992 49.3999 25.9992 47.9999C25.9992 46.5999 26.0992 45.0999 26.2992 43.4999H52.9992C54.2992 43.4999 55.2992 42.4999 55.2992 41.1999V33.3999C55.2992 32.0999 54.2992 31.0999 52.9992 31.0999H30.1992C34.9992 22.2999 43.2992 16.7999 52.1992 16.7999C58.2992 16.7999 64.1992 19.3999 68.8992 24.0999C69.7992 24.9999 71.1992 24.9999 71.9992 24.1999L80.6992 16.1999C81.1992 15.7999 81.3992 15.1999 81.4992 14.4999C81.4992 13.8999 81.2992 13.2999 80.8992 12.7999C72.9992 4.7999 62.8992 0.399902 52.2992 0.399902C34.7992 0.399902 18.8992 12.6999 12.5992 30.9999H2.99922C1.69922 30.9999 0.699219 31.9999 0.699219 33.2999V41.0999C0.699219 42.3999 1.69922 43.3999 2.99922 43.3999H9.99922C9.89922 44.9999 9.79922 46.4999 9.79922 47.8999C9.79922 49.2999 9.89922 50.7999 9.99922 52.2999H2.99922C1.69922 52.2999 0.699219 53.2999 0.699219 54.5999V62.3999C0.699219 63.6999 1.69922 64.6999 2.99922 64.6999H12.5992C18.8992 82.9999 34.7992 95.2999 52.2992 95.2999C62.8992 95.2999 73.0992 90.8999 80.8992 82.8999C81.2992 82.4999 81.5992 81.8999 81.5992 81.1999C81.5992 80.5999 81.2992 79.9999 80.7992 79.4999L71.9992 71.7999Z" fill="black"/>
</svg>
