<svg width="50" height="96" viewBox="0 0 50 96" fill="none" xmlns="http://www.w3.org/2000/svg">
<path d="M38.09 43.6049C34.3339 41.5727 30.4544 40.0332 26.4516 38.3709C24.1733 37.447 22.0182 36.3387 20.1093 34.7376C16.2914 31.7203 17.0303 26.7941 21.4638 24.8852C22.6954 24.3308 23.9887 24.1463 25.3433 24.023C30.516 23.7768 35.4422 24.7619 40.0606 26.9786C42.339 28.0874 43.2012 27.7175 43.9401 25.3163C44.7406 22.853 45.5412 20.2668 46.2184 17.6806C46.7112 15.8946 46.1568 14.7862 44.4941 14.0473C41.5384 12.754 38.4595 11.769 35.2573 11.2762C31.0084 10.6606 31.0084 10.6606 31.0084 6.41166C31.0084 0.5 31.0084 0.5 24.9738 0.5H22.4493C19.6782 0.561639 19.1854 1.11601 19.0622 3.88674V7.70457C19.0622 11.4611 19.0622 11.3995 15.4909 12.6928C6.86976 15.833 1.51247 21.7446 0.958097 31.1663C0.527379 39.5409 4.8992 45.206 11.6731 49.27C15.9832 51.7333 20.6633 53.3344 25.0971 55.2433C26.8211 55.9822 28.4838 56.906 29.9617 58.1373C34.3339 61.7089 33.4717 67.6206 28.4222 69.8373C25.6511 71.069 22.7571 71.3151 19.8011 70.9457C15.306 70.3917 10.9338 69.2217 6.80812 67.0662C4.40647 65.7733 3.66756 66.1428 2.80575 68.729C2.18974 71.069 1.51247 73.2857 0.896835 75.5641C0.0346465 78.643 0.342464 79.3819 3.1752 80.4903C6.86976 82.3379 10.8725 83.2614 14.9365 83.8774C18.1387 84.4314 18.2616 84.5546 18.2616 87.8798V92.3749C18.2616 94.3454 19.1854 95.4538 21.156 95.4538C23.3727 95.5154 25.5895 95.5154 27.8066 95.4538C29.6538 95.3309 30.5773 94.407 30.5773 92.5598C30.5773 90.4659 30.6389 88.4341 30.5773 86.4019C30.4544 84.2468 31.3166 83.2614 33.3484 82.7074C37.9668 81.4757 41.8462 79.0124 44.8635 75.3179C53.1768 65.1573 50.0363 50.1938 38.09 43.6049Z" fill="black"/>
</svg>
