<svg width="18" height="18" viewBox="0 0 18 18" fill="none" xmlns="http://www.w3.org/2000/svg">
<path d="M12.9997 17.0002C12.5997 17.0002 12.1997 16.7002 12.0997 16.3002L8.99969 7.20018L5.89969 16.4002C5.79969 16.8002 5.29969 17.1002 4.89969 17.1002C4.39969 17.1002 4.09969 16.7002 3.99969 16.2002L1.99969 2.20018C1.89969 1.60018 2.29969 1.10018 2.89969 1.00018C3.39969 0.900178 3.89969 1.30018 3.99969 1.90018L5.39969 11.7002L8.09969 3.70018C8.19969 3.30018 8.59969 3.00018 8.99969 3.00018C9.39969 3.00018 9.79969 3.30018 9.89969 3.70018L12.5997 11.7002L13.9997 1.90018C14.0997 1.40018 14.5997 1.00018 15.0997 1.10018C15.5997 1.20018 15.9997 1.70018 15.8997 2.20018L13.8997 16.2002C13.8997 16.6002 13.5997 17.0002 12.9997 17.0002Z" fill="black"/>
<path d="M17 11H1C0.4 11 0 10.6 0 10C0 9.4 0.4 9 1 9H17C17.6 9 18 9.4 18 10C18 10.6 17.5 11 17 11Z" fill="black"/>
<path d="M17 14H1C0.4 14 0 13.6 0 13C0 12.4 0.4 12 1 12H17C17.6 12 18 12.4 18 13C18 13.6 17.5 14 17 14Z" fill="black"/>
</svg>
