<svg width="205" height="123" viewBox="0 0 205 123" fill="none" xmlns="http://www.w3.org/2000/svg">
<g clip-path="url(#clip0_221_1083)">
<path fill-rule="evenodd" clip-rule="evenodd" d="M198.906 82.3624C186.871 79.5283 174.144 77.9025 167.649 75.8623C165.508 75.1902 162.945 74.0526 165.952 73.9255C173.21 73.6192 181.796 74.5985 189.716 76.9602C188.095 76.0404 186.517 75.0242 184.415 73.5486C170.416 63.7228 153.882 55.0379 136.812 49.2701C122.686 44.4962 107.296 41.327 92.6384 42.0873C96.1505 47.5428 98.9941 53.1641 101.087 59.1026C105.549 71.7596 104.152 87.8135 85.9398 87.6268C70.7991 87.4709 61.6894 73.0988 63.902 61.1723C65.4968 52.5752 71.1841 47.824 77.5732 43.7437C80.2741 42.0193 83.3155 40.7219 86.6283 39.8069C59.8426 8.04028 23.4857 10.8102 7.64488 37.1709C21.226 2.70905 67.6884 9.20168 90.0719 39.0101C120.43 33.2462 169.557 55.315 191.579 75.7871C189.128 71.7337 187.586 66.6441 186.974 62.0743C186.883 61.3978 186.264 58.7106 186.773 57.5322C186.962 57.094 187.307 56.8635 187.892 57.0218C188.226 57.1122 188.524 57.376 188.789 57.7928C189.558 59.0068 190.75 62.9881 191.959 66.8714C193.755 72.6323 195.514 77.003 198.906 82.3624ZM89.3481 43.1977C93.0337 48.9225 96.096 55.2144 98.1399 61.4387C101.434 71.4693 100.361 81.7387 89.9428 84.0253C83.4957 85.4403 77.7218 83.2753 73.5837 79.0013C58.6804 63.6054 74.4476 45.5916 89.3481 43.1977Z" fill="#E6C1A7"/>
</g>
<defs>
<clipPath id="clip0_221_1083">
<rect width="195.684" height="62.6585" fill="white" transform="translate(185.457 122.313) rotate(-161.395)"/>
</clipPath>
</defs>
</svg>
