<svg width="14" height="8" viewBox="0 0 14 8" fill="none" xmlns="http://www.w3.org/2000/svg">
<path d="M1.03104 0.397583H12.203C12.4008 0.397625 12.5941 0.456297 12.7585 0.566181C12.9229 0.676065 13.051 0.832229 13.1267 1.01493C13.2024 1.19763 13.2222 1.39866 13.1836 1.59261C13.1451 1.78657 13.0498 1.96473 12.91 2.10458L7.32404 7.69058C7.13651 7.87805 6.8822 7.98337 6.61704 7.98337C6.35187 7.98337 6.09756 7.87805 5.91004 7.69058L0.324037 2.10458C0.184227 1.96473 0.089021 1.78657 0.0504534 1.59261C0.0118859 1.39866 0.0316891 1.19763 0.107359 1.01493C0.183029 0.832229 0.311169 0.676065 0.475579 0.566181C0.639988 0.456297 0.833287 0.397625 1.03104 0.397583Z" fill="#666666"/>
</svg>
