<svg width="13" height="13" viewBox="0 0 13 13" fill="none" xmlns="http://www.w3.org/2000/svg">
<path d="M9.35672 3.50544L12.1663 3.89812C12.963 4.00942 13.2822 4.95848 12.7066 5.50395L10.6762 7.42769C10.4475 7.64435 10.3435 7.95617 10.3978 8.26161L10.881 10.9742C11.018 11.7435 10.1861 12.3311 9.4731 11.9688L6.95907 10.6907C6.67594 10.5469 6.33791 10.5472 6.05521 10.6917L3.54426 11.9757C2.83226 12.3398 1.99878 11.7539 2.13385 10.9844L2.61031 8.27068C2.6639 7.96509 2.55921 7.65341 2.32995 7.43732L0.295169 5.51825C-0.281901 4.97405 0.0349616 4.02429 0.8315 3.91115L3.64004 3.5121C3.95632 3.46721 4.22953 3.2742 4.37058 2.99608L5.62387 0.52602C5.97928 -0.174371 7.00858 -0.175646 7.36559 0.524037L8.62487 2.99112C8.76665 3.26882 9.04029 3.46126 9.35672 3.50544Z" fill="#124D00"/>
</svg>
