<svg width="48" height="45" viewBox="0 0 48 45" fill="none" xmlns="http://www.w3.org/2000/svg">
<path d="M42.2461 3.80675C40.0694 1.94206 37.2768 0.915071 34.3819 0.915071C31.0344 0.915071 27.7955 2.29624 25.4973 4.7055C24.9611 5.26507 24.471 5.88182 24.0161 6.56519C21.6671 3.03067 17.8722 0.894531 13.7831 0.894531C13.034 0.894531 12.2741 0.966143 11.5245 1.10715C7.65469 1.83825 4.61323 4.04656 2.48464 7.66879C-0.562699 12.8615 -0.804024 17.6567 1.74461 22.3287C3.11177 24.8312 4.89041 27.2793 7.18541 29.8118C11.4078 34.4688 16.405 38.8871 22.9171 43.7206C23.2638 43.9765 23.633 44.1053 24.0124 44.1053C24.601 44.1053 24.9991 43.7961 25.226 43.6185C31.0135 39.3345 35.7625 35.2071 39.7467 30.9959C41.9877 28.6266 44.5262 25.7155 46.3819 22.0955C47.1604 20.5711 48.0497 18.5249 47.9978 16.2134C47.8812 11.1539 45.9468 6.97932 42.2461 3.80675ZM44.0061 20.7882C42.313 24.0929 39.9324 26.8163 37.8284 29.0424C34.0346 33.0521 29.5115 36.9952 24.0038 41.096C17.8733 36.5128 13.1399 32.3105 9.14384 27.9016C6.99706 25.5323 5.34363 23.2602 4.08456 20.9536C2.03196 17.1898 2.25241 13.4294 4.78178 9.12101C6.49354 6.20657 8.92553 4.43404 12.0044 3.85171C12.5941 3.74013 13.1929 3.68462 13.7831 3.68462C17.4522 3.68462 20.7007 5.78356 22.4638 9.28477C22.5644 9.48851 22.6634 9.6828 22.8266 9.99812C23.0599 10.4544 23.5164 10.7375 24.0119 10.7375C24.0194 10.7375 24.0274 10.7375 24.0349 10.7375C24.5384 10.7287 24.9954 10.4283 25.218 9.95926C25.8606 8.60696 26.5557 7.5622 27.4075 6.66844C29.206 4.78378 31.7477 3.70516 34.3825 3.70516C36.6544 3.70516 38.8387 4.5051 40.5328 5.95843C43.6074 8.59086 45.2138 12.0649 45.3111 16.2794C45.347 17.9348 44.6706 19.487 44.0061 20.7882Z" fill="black"/>
</svg>
