<svg width="33" height="33" viewBox="0 0 33 33" fill="none" xmlns="http://www.w3.org/2000/svg">
<path fill-rule="evenodd" clip-rule="evenodd" d="M16.2683 2.08252C12.2168 2.08252 8.9552 5.35829 8.9552 9.38895C8.9552 13.3355 12.0687 16.5489 15.9932 16.6807C16.037 16.6822 16.0808 16.6809 16.1244 16.677C16.2191 16.6684 16.3206 16.6693 16.3886 16.6761C16.4353 16.6807 16.4823 16.6823 16.5292 16.6807C20.4546 16.5489 23.5649 13.3357 23.5813 9.39335L23.5814 9.38895C23.5814 5.35674 20.3042 2.08252 16.2683 2.08252ZM11.0688 9.38895C11.0688 6.52144 13.3872 4.1942 16.2683 4.1942C19.1361 4.1942 21.4666 6.52182 21.4677 9.3868C21.4549 12.1807 19.2708 14.4443 16.5177 14.5679C16.3511 14.5558 16.1746 14.5564 16.0074 14.568C13.2516 14.4457 11.0688 12.1806 11.0688 9.38895Z" fill="#666666"/>
<path fill-rule="evenodd" clip-rule="evenodd" d="M24.14 19.9422C21.9988 18.5134 19.2282 17.8322 16.5112 17.8322C13.7939 17.8322 11.0179 18.5135 8.86425 19.9402L8.86037 19.9428C6.9365 21.2295 5.83398 23.0268 5.83398 24.9573C5.83398 26.8882 6.93688 28.6824 8.86183 29.9623C11.0094 31.3974 13.783 32.0825 16.5007 32.0825C19.2189 32.0825 21.993 31.3972 24.1407 29.9615C26.0646 28.6747 27.1673 26.8773 27.1673 24.9468C27.1673 23.0161 26.0646 21.222 24.14 19.9422ZM7.94759 24.9573C7.94759 23.8933 8.54952 22.6926 10.0342 21.6989C11.7694 20.5502 14.1145 19.9439 16.5112 19.9439C18.9092 19.9439 21.2464 20.5507 22.9661 21.6982L22.9677 21.6993C24.452 22.6859 25.0537 23.8829 25.0537 24.9468C25.0537 26.0113 24.4513 27.2126 22.9652 28.2065C21.238 29.3611 18.8973 29.9708 16.5007 29.9708C14.1039 29.9708 11.7632 29.361 10.0359 28.2064L10.0336 28.2049C8.54927 27.2182 7.94759 26.0212 7.94759 24.9573Z" fill="#666666"/>
</svg>
