<svg width="444" height="61" viewBox="0 0 444 61" fill="none" xmlns="http://www.w3.org/2000/svg">
<path d="M2.49666 52.0211C2.86616 52.0211 3.0773 51.8434 2.97173 51.6479C2.86615 51.4524 2.86615 50.9726 3.28844 51.2569C3.71073 51.5412 4.46733 52.7674 4.53771 52.4831C4.6081 52.1988 4.90722 51.4168 4.9776 51.7189C5.04798 52.0211 5.55823 52.6075 6.01571 52.5187C7.03451 52.4771 8.05389 52.5849 9.0421 52.8385H9.79869C10.1587 52.8596 10.5141 52.9314 10.8544 53.0518C11.2943 53.1406 11.9277 53.0518 12.1037 53.3539C12.526 53.887 12.7547 53.1406 13.1946 53.3539L13.5817 53.5138C14.3406 53.3423 15.1277 53.3423 15.8867 53.5138H16.4673C17.2415 53.5138 18.1388 53.1406 18.7899 53.3361L19.7048 53.6027C20.9034 53.2861 22.1287 53.0839 23.3646 52.9985L24.5259 53.1051C25.6645 53.3356 26.845 53.2244 27.9218 52.7852C28.4455 52.5982 29.0169 52.5982 29.5406 52.7852C29.7094 52.8726 29.8963 52.9181 30.086 52.9181C30.2757 52.9181 30.4627 52.8726 30.6315 52.7852C31.1769 52.6075 31.9159 51.9144 32.6021 52.7852C32.7336 52.8286 32.8754 52.8286 33.0068 52.7852C33.3412 52.2165 33.7106 52.8918 34.045 52.7852C34.3982 52.556 34.7838 52.3822 35.1887 52.2698H35.5581C36.4086 52.4124 37.2766 52.4124 38.1271 52.2698C39.4373 52.0756 40.7272 51.7604 41.9804 51.328L42.3147 51.5768C42.5414 51.7066 42.801 51.7658 43.0609 51.7468C43.3208 51.7278 43.5693 51.6316 43.7751 51.4702C44.378 51.217 45.0109 51.0438 45.6578 50.9548C46.271 50.7217 46.9205 50.6013 47.5757 50.5994C48.2795 50.706 48.7722 50.084 49.4232 50.4039C49.4232 50.4039 49.564 50.5461 49.5816 50.5283C50.2854 50.2973 50.778 49.5864 51.7282 49.9419L53.998 49.6931L54.7018 49.3732C55.8764 48.923 57.0898 48.5839 58.3264 48.3602L59.4349 48.2181C59.8924 48.2181 60.4202 48.2181 60.3499 47.6494C60.5023 47.5293 60.6853 47.4553 60.8777 47.4362L62.039 48.1115C62.7474 47.5103 63.5206 46.9917 64.344 46.5654C65.0767 46.2485 65.7779 45.8617 66.4378 45.4103C67.4574 45.2587 68.4865 45.1815 69.517 45.1793C70.9734 44.4418 72.368 43.586 73.6871 42.6202H74.8836H75.5346C76.3967 42.176 76.4671 41.1275 75.7105 40.2745L75.341 39.4748C74.8827 38.5974 74.5001 37.6818 74.1973 36.7381C73.4129 34.7338 73.0706 32.5809 73.1944 30.4294L73.4407 29.0965C73.5463 27.6216 73.7574 25.8267 73.8982 25.0981L73.7223 24.3873C73.6777 23.64 73.823 22.8937 74.1445 22.2192L74.3909 21.5261C74.778 20.7798 75.2354 19.9445 75.4114 19.6424C75.7299 19.0812 75.9838 18.4849 76.168 17.8653C76.168 17.5454 77.2941 16.9768 77.3997 16.7991V16.6391L77.8923 15.484C79.0913 14.2273 80.3602 13.0406 81.6929 11.9298L82.08 11.0946C82.3615 10.4726 83.2589 10.5259 83.3997 9.7973C83.3997 9.42411 84.4202 9.15754 84.9656 8.81989C85.2143 8.6707 85.4396 8.48505 85.6343 8.26899C85.8454 8.0202 85.9158 7.68255 86.1621 7.48707C86.4084 7.29159 86.6196 8.03797 86.9891 7.48707C87.3586 6.93617 88.0624 7.48707 87.8688 6.84731L90.1034 5.31901L91.0536 4.75036C92.2149 4.27054 94.0448 3.47085 95.1181 2.97326L95.9802 2.40458C96.4895 2.10781 97.0514 1.91464 97.6342 1.83592C98.5261 1.58982 99.4018 1.28709 100.256 0.929586C100.607 0.7169 101.001 0.585847 101.409 0.54589C101.817 0.505934 102.228 0.558092 102.614 0.698582C102.719 0.698582 102.93 0.698582 103.089 0.698582H104.074C105.34 0.465007 106.635 0.435014 107.91 0.609722H108.878H109.863C110.813 0.757967 111.77 0.852898 112.731 0.894064C113.701 1.23317 114.647 1.63686 115.564 2.10248C117.335 2.9797 119.006 4.0525 120.543 5.30125L120.666 6.17204L120.772 6.88286C121.382 7.45717 121.909 8.11522 122.338 8.83768L122.619 9.38857C122.936 10.0106 123.218 10.6325 123.499 11.2545C123.587 11.4145 123.499 11.6632 123.693 11.7699C124.073 11.938 124.443 12.1278 124.801 12.3386C125.083 12.5873 124.397 12.9961 124.977 13.3337C125.276 13.5114 125.294 14.009 125.382 14.3644C125.664 15.2046 125.847 16.0755 125.927 16.959V17.9542C125.699 19.0382 125.048 21.2418 124.502 22.859L123.992 24.3162L123.64 25.3824C122.649 26.3331 121.72 27.3482 120.86 28.4212L119.998 28.83L119.276 29.1676C118.659 29.9734 117.93 30.6855 117.112 31.2824C116.479 31.7089 114.666 33.2372 114.262 33.6104C113.857 33.9835 112.661 34.801 112.854 35.0853C113.048 35.3697 111.394 35.654 110.725 35.9917C110.056 36.3293 107.206 39.3148 104.69 41.0031L102.279 42.3892C99.2882 44.1663 96.1738 45.6946 93.0946 47.3118L92.5492 47.5961C91.863 47.8271 92.338 48.4847 93.5697 49.0711C96.198 50.0438 98.8835 50.8509 101.611 51.4879L103.282 51.79L104.25 51.9677C105.196 51.8404 106.155 51.8404 107.1 51.9677C107.593 52.0921 109.335 51.9677 109.775 51.9677L110.144 52.1099C110.602 52.3054 110.76 51.4702 111.271 51.9322C111.373 51.9688 111.485 51.9688 111.587 51.9322C111.869 51.8434 114.279 51.4879 114.561 51.4702C114.842 51.4524 115.018 51.2925 115.247 51.2925C116.373 51.3813 117.499 50.244 118.661 51.2925C119.505 51.0321 120.362 50.8185 121.229 50.6527C122.338 50.4039 125.224 49.4621 124.995 48.8756L125.98 49.622L126.561 50.0663C127.159 49.853 128.32 49.4976 129.165 49.2488C130.009 49 132.878 48.0759 133.81 47.9515L134.408 47.5783C135.077 47.1696 135.693 47.7561 135.71 47.685L136.238 46.1034L139.652 45.9434C139.977 45.9861 140.3 46.0454 140.619 46.1211C140.866 46.1211 141.71 45.1615 142.379 45.197C143.801 44.9147 145.188 44.4737 146.514 43.882L147.482 43.5976C148.141 43.255 148.869 43.0667 149.611 43.0467C149.945 43.0467 150.332 42.6202 150.737 42.4958H150.965C151.3 42.4958 151.757 42.2115 152.004 41.6784L152.795 42.2826C152.795 42.2826 153.534 41.7672 153.992 41.6428L154.361 41.5362C154.957 41.5333 155.55 41.4436 156.121 41.2697L156.367 40.8431C156.503 40.6418 156.711 40.5017 156.948 40.4522C157.792 40.4522 159.059 40.4522 159.411 40.0257L160.15 39.066C161.399 38.6929 162.666 38.2664 162.948 38.1242H163.229C163.828 38.1242 164.496 38.2486 164.549 37.4489C164.744 37.3681 164.954 37.3259 165.165 37.3245C166.027 37.3245 166.625 37.2001 166.924 36.3826C167.048 35.9384 167.47 36.507 167.523 36.4715L168.103 36.0094L171.622 34.4811L172.731 34.2501L173.716 34.0546C174.613 33.6104 176.109 32.9173 177.042 32.5264L177.816 32.0465C178.133 31.8333 178.942 32.5796 178.907 31.62C178.907 31.4601 179.751 31.2468 180.226 31.0691L180.754 30.8559C181.605 30.6328 182.435 30.3355 183.235 29.9673C183.974 29.6119 186.895 28.4213 187.968 27.8526C189.652 27.2778 191.367 26.803 193.106 26.4309C193.847 26.0456 194.611 25.7073 195.393 25.418C195.869 25.3113 197.311 24.5472 197.734 24.4583C198.463 24.4932 199.185 24.6246 199.88 24.8493C200.109 24.8493 200.391 24.8493 199.669 24.5472L199.863 23.8363C199.986 23.4098 200.215 23.3032 200.637 23.4276C201.059 23.552 201.341 23.783 201.376 23.7475L202.801 22.3969C203.966 22.5738 205.142 22.6747 206.32 22.699C206.109 22.699 206.003 22.3081 206.496 22.1126C207.542 21.7453 208.612 21.4543 209.698 21.2418L210.156 20.9219L210.666 20.5487C211.813 20.3946 212.925 20.0461 213.956 19.518H216.138C216.388 19.2977 216.684 19.1383 217.005 19.052C217.325 18.9657 217.661 18.9549 217.986 19.0204C218.408 19.2159 219.499 19.0204 219.323 18.4162L220.396 18.274C220.854 18.274 221.241 17.9897 221.681 18.274C221.874 18.274 223.106 17.6343 224.408 16.9945L225.481 17.0834C226.056 17.248 226.645 17.3551 227.241 17.4033C227.779 17.2145 228.288 16.9514 228.754 16.6213C229.248 16.338 229.766 16.1001 230.302 15.9105L230.672 15.7861C231.229 15.8888 231.761 16.1001 232.238 16.4081V15.715C232.238 15.715 232.889 15.5373 233.258 15.5195L234.385 15.4307C235.284 15.3092 236.195 15.3092 237.094 15.4307C237.267 15.6098 237.462 15.7652 237.675 15.8927C237.723 15.8417 237.757 15.7784 237.772 15.7095C237.788 15.6407 237.784 15.5689 237.763 15.5018C237.763 15.3418 237.657 14.7554 237.763 14.7199C238.276 14.874 238.763 15.1078 239.206 15.4129L239.346 14.4888C239.592 14.4049 239.858 14.4049 240.103 14.4888C240.508 14.9153 240.684 14.4888 240.965 14.4C241.247 14.3111 241.458 14.7021 241.722 14.7376H242.003L243.341 14.1867C244.374 13.7865 245.458 13.5353 246.56 13.4403L247.247 13.0494C247.562 12.837 247.932 12.7236 248.311 12.7236C248.69 12.7236 249.061 12.837 249.376 13.0494C249.478 13.086 249.59 13.086 249.692 13.0494L250.66 11.9831C252.015 12.3563 252.912 12.7117 252.684 12.7473C252.455 12.7828 251.857 13.0316 252.349 13.1382L252.49 13.3159C252.93 13.7958 253.088 13.2271 253.352 13.2093C253.616 13.1915 253.88 12.8539 254.091 12.7117L254.689 12.3563C255.798 12.0542 256.449 12.1075 256.027 12.4629V12.6584V12.8006C256.136 12.915 256.273 12.9995 256.424 13.0461C256.575 13.0927 256.735 13.1 256.889 13.0671L256.977 12.925L257.54 11.8409C258.684 11.8409 259.986 11.6632 260.443 11.5922H260.654L261.464 11.8765C262.179 11.7111 262.884 11.5035 263.575 11.2545C263.927 11.1124 265.106 11.4855 265.335 11.4322C265.563 11.3789 266.513 11.4322 266.672 11.3256C266.83 11.219 267.481 10.9702 267.728 11.0946C268.216 11.3123 268.742 11.4272 269.276 11.4322C270.254 11.1562 271.213 10.8118 272.144 10.4015L272.813 10.5081L274.255 10.7392C275.629 10.3245 277.066 10.1679 278.496 10.2771L279.393 10.366H279.886C280.559 10.199 281.254 10.1449 281.945 10.206C283.061 10.1459 284.166 9.94898 285.235 9.61958L285.763 9.97502L286.308 10.3304C286.78 10.2775 287.242 10.1578 287.681 9.97502C289.035 10.7214 290.601 9.97501 291.991 10.3837L292.466 10.5259C292.959 10.8102 293.505 10.9346 293.681 10.7925C294.395 10.5551 295.166 10.5551 295.88 10.7925C296.672 11.1123 300.437 11.7876 302.496 12.2675L304.255 12.7473C304.994 12.9428 305.716 13.2804 306.49 13.4937L307.37 13.7424L309.516 15.5195C310.031 15.9322 310.518 16.3773 310.977 16.8524C310.977 16.9945 310.977 17.5987 310.977 17.812C310.977 18.0252 312.173 18.274 312.49 18.3451V19.127C312.846 19.2683 313.228 19.3319 313.61 19.3135C313.992 19.2951 314.366 19.1952 314.707 19.0204C315.323 18.665 317.452 19.4114 317.821 19.4291C318.581 19.3493 319.349 19.4034 320.091 19.5891L320.742 19.0915L320.848 19.0027C321.255 18.9735 321.66 18.9201 322.062 18.8427C322.824 18.853 323.583 18.9303 324.332 19.0737C324.595 19.0737 325.229 19.4114 325.422 19.4291C325.616 19.4469 327.499 19.4291 329.153 19.3225L330.648 19.4114C331.076 19.5183 331.523 19.5183 331.95 19.4114C332.52 19.2095 333.14 19.2095 333.71 19.4114L334.238 19.7312H336.208H336.683C337.141 19.7312 337.845 19.7313 338.003 19.8557L338.443 20.3888C338.822 20.0829 339.222 19.8039 339.639 19.5536C339.938 19.3758 341.276 20.1578 341.892 20.2999H343.018C343.552 20.2 344.093 20.1406 344.636 20.1222C344.953 20.1222 346.396 20.3177 346.959 20.3888H347.557L348.296 20.4776L350.496 20.8153C351.29 20.8294 352.085 20.7759 352.871 20.6553C353.364 20.6553 354.982 20.7797 355.792 20.6553C356.601 20.5309 359.751 21.4906 361.317 21.4906L362.636 21.8993C363.375 22.1481 363.745 21.2951 364.396 21.7394L364.853 22.0059C365.432 22.1449 366.034 22.1449 366.613 22.0059H366.894C367.457 21.9171 368.197 21.615 368.214 22.5213C368.214 22.5213 368.865 22.699 368.971 22.5213L369.587 21.9882C370.314 22.1353 371.027 22.3494 371.716 22.6279C372.138 22.8056 373.475 22.3614 373.721 22.4858C373.968 22.6101 375.076 22.9656 375.27 22.8234C375.463 22.6812 376.044 22.5035 375.938 22.8234C375.833 23.1433 377.258 22.8234 377.698 22.8234H378.138H379.475C380.761 22.8189 382.025 23.1625 383.135 23.8186L383.751 23.2144C384.454 22.5213 384.806 23.3921 385.352 23.3565C385.655 23.2901 385.968 23.2889 386.271 23.3533C386.574 23.4176 386.861 23.5458 387.111 23.7297C387.419 23.6536 387.704 23.5009 387.938 23.2854C388.185 23.0722 389.698 23.5342 390.314 23.6231H390.93C391.528 23.6231 392.196 23.4632 392.689 24.0141C392.831 24.0671 392.987 24.0671 393.129 24.0141L393.78 22.9656C394.623 23.2877 395.441 23.6738 396.226 24.1207C397.274 24.1999 398.327 24.1999 399.375 24.1207L399.78 24.4228C400.466 24.9204 400.695 24.2095 401.135 24.4228C401.575 24.636 402.384 24.9204 402.56 24.7782C403.176 24.2806 403.598 24.9026 404.108 24.7782C404.625 24.7584 405.139 24.8683 405.604 25.0981L406.044 25.258C407.11 25.1864 408.18 25.1864 409.246 25.258C410.302 25.258 413.363 25.649 413.715 25.7556C414.067 25.8622 414.929 25.8978 415.211 26.0222C415.77 26.066 416.333 26.0301 416.883 25.9156C417.706 26.0383 418.493 26.3415 419.188 26.8041L419.839 25.9866C420.788 26.294 421.758 26.5315 422.742 26.6975C423.85 26.8929 427.141 27.2839 427.58 27.4261C428.12 27.523 428.67 27.5528 429.217 27.5149C429.498 27.5149 430.765 27.6926 431.416 27.817L431.856 28.1014C432.472 28.5101 432.877 28.9721 433.774 28.3679L434.108 28.1369C434.948 28.2725 435.754 28.568 436.484 29.0077L436.783 29.4164L437.363 30.2161L439.774 30.0384C440.161 30.0384 441.358 30.0384 441.393 30.1806C441.52 30.4122 441.703 30.6081 441.924 30.7508C442.145 30.8935 442.398 30.9785 442.66 30.998C443.275 30.998 444.314 32.2242 443.909 32.0465C443.431 31.8296 442.918 31.7031 442.396 31.6733C442.308 31.7622 442.044 32.3309 442.29 32.5264H442.554C443.469 32.5264 443.328 33.095 443.381 33.5926C443.434 34.0902 442.712 34.339 443.381 34.8721L443.715 35.1742C443.728 35.9049 443.687 36.6355 443.592 37.36C443.592 37.9465 441.674 38.0531 441.34 38.0886C441.006 38.1242 439.58 38.0886 439.035 38.0886C438.49 38.0886 436.29 37.7155 435.727 37.7865C435.164 37.8576 433.176 37.3067 432.63 37.3423C431.905 37.2706 431.174 37.2706 430.449 37.3423C430.044 37.52 428.355 36.7558 427.246 36.667C426.138 36.5781 422.355 36.2938 421.246 36.1872C420.138 36.0805 416.971 35.3875 416.566 35.2453H416.232L413.803 35.4941C411.182 35.1209 408.331 34.6944 407.434 34.5345H406.625C405.869 34.5509 405.117 34.4244 404.408 34.1613L403.95 33.9302L401.645 34.2146C401.152 34.2146 399.41 33.8414 398.918 33.9125C398.425 33.9836 396.578 33.4149 395.856 33.3438C394.593 33.3157 393.33 33.3692 392.073 33.5037L391.862 33.3083C391.405 32.8817 391.018 33.3083 390.613 33.2016C390.186 33.0829 389.751 32.9997 389.311 32.9528C388.765 32.9528 388.202 32.9528 387.657 32.9528C387.111 32.9528 386.689 32.5086 386.443 32.6152C385.475 33.0595 384.683 32.4197 383.716 32.6152C383.166 32.6862 382.611 32.6862 382.062 32.6152H381.586C381.043 32.5058 380.508 32.3573 379.985 32.1709H379.545C379.286 32.2532 379.011 32.2735 378.742 32.2303C378.474 32.1872 378.219 32.0817 377.997 31.9221L377.874 31.8155C377.014 32.0688 376.129 32.2238 375.235 32.2775C374.152 32.1367 373.092 31.8498 372.085 31.4245L369.534 31.3179C368.302 31.3179 364.537 30.9269 363.886 30.8381C363.235 30.7492 361.141 30.3938 360.666 30.2872H360.226C359.487 30.2872 358.783 30.5893 357.974 30.2872C357.164 29.9851 356.443 30.5005 355.739 30.0206L355.035 29.5408C354.051 29.6069 353.063 29.6069 352.079 29.5408C351.393 29.5408 348.56 29.452 347.293 29.3631C346.026 29.2742 342.631 29.0077 342.279 29.061C341.683 29.0644 341.091 28.9806 340.519 28.8122C340.22 28.7056 338.619 29.1499 337.616 29.221C336.128 29.045 334.653 28.7719 333.199 28.4035H328.607C324.068 28.4035 319.722 28.2968 318.947 28.1724L318.367 28.7411C318.244 28.8833 317.733 28.8655 317.469 28.7411C317.205 28.6167 316.801 28.0658 316.308 28.5101L315.763 29.0255C315.261 29.584 314.99 30.3153 315.006 31.0691L314.584 31.5134C314.584 31.6022 314.724 31.8688 314.76 32.0465L314.848 32.5086C314.529 32.3918 314.181 32.3918 313.862 32.5086V32.6152V32.864C313.913 33.3849 313.795 33.9084 313.528 34.3568C313.264 34.9077 311.768 36.2227 311.03 36.1339V36.7736C311.004 37.0387 310.919 37.2945 310.782 37.5222C310.645 37.7498 310.459 37.9434 310.238 38.0886L310.097 38.1953C310.082 38.648 310.117 39.1011 310.203 39.5459L309.516 39.8302H309.34C309.2 40.0079 308.777 40.5233 308.39 40.9498C307.639 41.4235 306.811 41.7603 305.944 41.9449L305.768 42.0516L305.575 42.1404C305.327 42.4294 305.104 42.7385 304.906 43.0645C304.695 43.4022 303.956 44.0419 303.428 43.6687L303.323 44.6106V45.0015C303.205 45.1545 303.056 45.2799 302.886 45.3689C302.716 45.4579 302.529 45.5084 302.337 45.5169C301.519 45.6146 300.716 45.8115 299.944 46.1034C299.047 46.4232 296.285 47.4895 295.686 47.6494C294.395 47.9049 293.091 48.0888 291.78 48.2003C290.795 48.2892 287.311 49 286.15 49.1422L285.094 48.9111L284.425 48.7512C283.704 48.7512 282.384 48.8934 281.522 48.8934H280.73C279.939 48.8934 279.129 48.8934 278.337 48.8934C278.197 48.8934 277.986 48.8934 277.898 48.8934C277.423 48.5913 277.176 47.9871 276.279 48.5024C275.98 48.6623 275.276 48.147 274.607 48.1115C273.446 48.1115 272.496 47.1874 271.211 47.3295C271.211 47.3295 271.071 47.1163 271.018 47.0097C270.823 46.7639 270.668 46.4879 270.56 46.1922L270.42 45.5524C269.892 45.6946 269.575 45.5524 269.716 45.3747L269.575 45.1615C269.364 44.8416 269.1 44.5395 268.854 44.2196L268.291 42.9756V42.638C268.15 42.2826 267.833 41.4829 267.552 40.8609L267.323 40.2922C267.066 39.795 266.848 39.278 266.672 38.7462C266.452 37.7679 266.294 36.7767 266.197 35.7784V35.2275C266.286 34.7028 266.465 34.1978 266.725 33.7348C267.145 33.406 267.592 33.1146 268.062 32.864C268.565 32.5463 268.968 32.0901 269.223 31.5489L269.469 31.2291C269.751 30.8381 270.631 30.998 270.648 30.2694V29.8962C271.046 30.052 271.475 30.1069 271.898 30.0562C272.444 29.8434 272.974 29.588 273.481 29.292L273.886 29.1499L274.291 29.0077C274.818 29.0077 275.258 28.67 275.258 28.4212C275.258 28.1724 275.54 27.4083 275.892 27.4083C276.244 27.4083 277.211 27.3195 277.088 27.1951C276.965 27.0707 276.807 26.7685 276.912 26.6797H277.018C277.174 26.6439 277.337 26.6439 277.493 26.6797C278.83 26.964 279.252 26.0577 280.009 25.4713C280.766 24.8848 280.59 24.9737 280.959 25.5779L281.382 26.2532C281.557 25.8444 281.839 25.5779 281.997 25.6668C282.156 25.7556 282.754 25.6668 282.684 25.5424L282.578 25.4535L281.997 24.8848L285.041 23.5165L286.079 23.0722C286.399 22.8979 286.754 22.8006 287.117 22.7879C287.909 23.1128 288.773 23.2112 289.616 23.0722L290.109 22.9123C290.468 22.9965 290.841 22.9965 291.2 22.9123L291.305 22.8056C291.446 22.6812 291.552 22.4147 291.657 22.4147C292.753 22.298 293.833 22.0596 294.877 21.7038L295.862 21.4906C297.024 21.3662 298.642 21.1352 299.469 20.993L300.12 20.762C300.666 20.5487 300.912 20.3177 301.493 20.762L301.88 21.0285C302.102 20.8919 302.351 20.8067 302.61 20.7791C302.869 20.7514 303.13 20.782 303.376 20.8686C303.622 21.0641 304.22 20.4066 304.343 20.2111C304.466 20.0156 305.469 20.2111 305.997 20.2111L306.208 19.7312V19.6246C306.402 19.4825 306.085 19.3403 305.522 19.2692C304.674 19.1015 303.801 19.1015 302.953 19.2692L302.443 18.9316C301.975 18.6047 301.466 18.3418 300.93 18.1496L300.455 18.0075C299.828 17.9784 299.201 18.0688 298.607 18.274C298.185 18.4695 295.563 17.7587 293.522 17.7587C291.481 17.7587 285.78 17.7587 285.358 17.581C284.936 17.4033 283.722 18.1496 283.423 18.274C283.123 18.3984 281.417 17.9719 280.572 17.9897L279.815 18.1496L278.988 18.3451C277.919 18.438 276.856 18.5923 275.804 18.8072L275.1 18.505L274.783 18.3629C274.537 18.043 274.273 18.203 274.203 18.7539L273.34 18.5228L272.513 18.3096C271.396 18.4908 270.267 18.5799 269.135 18.5761L268.308 19.127L268.027 19.3048C266.939 19.0809 265.827 19.0032 264.719 19.0737C263.628 19.0737 260.883 19.9267 260.83 19.8023C260.756 19.7036 260.649 19.6361 260.529 19.6131C260.408 19.5901 260.284 19.6132 260.179 19.6779C259.915 19.8556 258.983 20.1755 258.42 20.531L258.261 20.4066C257.505 19.8557 256.818 20.2111 256.097 20.4066C255.573 20.2605 255.02 20.2605 254.496 20.4066C253.739 20.5665 251.1 20.993 250.343 21.1529C249.18 21.3686 247.988 21.3686 246.824 21.1529L246.437 21.8282C246.279 22.1126 245.558 22.237 245.065 22.3081C244.572 22.3791 243.956 22.3081 243.411 22.3081C243.194 22.3131 242.985 22.3878 242.813 22.5213C242.579 22.7726 242.282 22.9561 241.954 23.053C241.626 23.1498 241.279 23.1565 240.948 23.0722L240.121 22.93C238.759 23.3903 237.365 23.7467 235.951 23.9963C234.385 24.2806 229.018 25.5601 227.364 25.9156L225.851 26.1999C224.755 26.2647 223.695 26.6136 222.772 27.2128C222.596 27.3192 222.395 27.3745 222.191 27.3728C221.734 26.7863 221.258 27.2839 220.907 27.3728C219.889 27.7966 218.816 28.0718 217.722 28.1902H216.824C215.945 28.7128 214.998 29.1077 214.009 29.3631C212.886 29.6553 211.791 30.0478 210.737 30.536C210.156 30.8026 208.15 31.3001 207.657 31.4601L201.446 33.5926L199.212 34.3568C198.932 34.4076 198.663 34.51 198.42 34.6589L197.839 35.2098C197.108 35.43 196.397 35.7094 195.71 36.045C195.376 36.2227 193.951 36.4893 193.599 36.6492L193.335 36.8802C193.134 37.1023 192.885 37.2741 192.607 37.3821C192.329 37.4901 192.03 37.5312 191.734 37.5022C191.379 37.5412 191.037 37.6563 190.731 37.8398C190.315 38.1209 189.866 38.3478 189.393 38.5152L187.44 38.8706C185.962 39.7748 184.422 40.5707 182.83 41.2519C181.662 41.7831 180.523 42.3763 179.417 43.029C179.083 43.2244 177.657 43.5265 177.358 43.6687C176.479 44.0117 175.621 44.4094 174.789 44.8594L174.174 45.2326C173.981 45.3417 173.761 45.3911 173.54 45.3747L172.872 45.2326C172.308 45.5347 170.408 46.3521 168.666 47.0097L166.907 47.294C166.907 47.294 166.801 47.294 166.731 47.4006L165.675 47.8271C164.592 48.189 163.534 48.6224 162.508 49.1244C161.98 49.4265 159.358 49.8708 158.285 50.1906C157.212 50.5105 154.009 51.9677 153.182 52.3054C152.355 52.643 148.977 53.4783 147.534 53.8159L146.461 54.3846L145.564 54.8644C144.645 54.9431 143.741 55.1402 142.872 55.4509C142.414 55.6463 140.004 56.1972 138.754 56.4993L137.716 56.8725C136.766 57.2102 135.763 56.7482 134.848 57.4057C134.268 57.8144 133.089 57.69 132.244 57.8499C130.485 58.1698 128.725 58.5252 126.965 58.8806H126.825C125.73 59.0614 124.625 59.18 123.517 59.2361L122.004 59.396C121.018 59.5026 120.068 59.6626 119.1 59.787C118.133 59.9114 117.059 59.5026 116.197 60.1602C116.197 60.1602 115.845 60.1602 115.722 60.1602C114.966 60.5156 114.385 59.2894 113.417 60.0713L113.03 60.4089C111.917 60.269 110.827 59.976 109.793 59.5382L109.001 59.8936L108.279 60.2313C107.37 59.9403 106.418 59.808 105.464 59.8403L104.743 59.4138C104.203 59.296 103.646 59.296 103.106 59.4138H102.561C102.421 59.2146 102.236 59.0514 102.022 58.9372C101.809 58.823 101.571 58.7611 101.329 58.7563H100.907C100.59 58.7563 100.238 59.1472 99.9392 58.7563C99.6401 58.3653 98.6196 58.2409 97.863 58.1165C96.7461 57.8492 95.6472 57.5109 94.5726 57.1035L94.2911 57.0147C94.0272 57.0147 93.8512 56.7126 93.9392 56.5527C94.0272 56.3927 94.1855 55.9307 94.1327 55.9129C93.942 55.9102 93.7559 55.9729 93.6049 56.0906C93.3292 56.2196 93.029 56.2863 92.7251 56.2863C92.4213 56.2863 92.1211 56.2196 91.8454 56.0906L91.4935 55.7707L91.3175 55.593C91.2295 55.3265 91.036 55.1665 90.8952 55.2376C90.7545 55.3087 90.3674 55.0954 90.2266 54.8289C90.0858 54.5623 89.5052 53.7982 89.4524 53.9581C89.3996 54.118 89.1181 54.4735 88.9773 54.3135C88.542 53.9998 88.069 53.743 87.5697 53.5494L87.1474 53.4427C86.1093 53.1406 85.9158 52.9096 85.3879 51.6656V51.4346C85.3307 51.3711 85.2577 51.3243 85.1764 51.299C85.0952 51.2737 85.0087 51.2709 84.9261 51.2909C84.8434 51.3109 84.7675 51.3529 84.7064 51.4125C84.6453 51.4722 84.6011 51.5473 84.5785 51.6301L84.1211 51.3458L83.9627 51.2392C83.1939 51.2703 82.4318 51.3956 81.6929 51.6123L80.8131 51.9322L79.0536 52.5542C77.1005 53.2117 74.866 53.9403 74.0742 54.1713C73.2824 54.4024 70.4144 55.2376 69.4642 55.4509C68.5141 55.6641 65.3821 56.3749 64.5727 56.6593C63.7634 56.9436 61.1592 57.2102 60.7897 57.3879H60.473H59.2942C58.0801 57.6367 56.1094 57.9921 54.9305 58.1876C53.7516 58.3831 50.0566 58.8451 49.4232 59.0584H48.8777H48.2795C47.6109 59.0584 46.8015 59.2894 46.52 59.3782C46.2385 59.4671 43.1769 59.8581 40.6608 60.249L38.303 59.9291H37.6344C36.7641 60.0238 35.9003 60.1722 35.0479 60.3734H34.3793C33.5875 60.3734 32.7957 60.3734 32.0039 60.3734H31.2825C30.173 60.3448 29.0673 60.2319 27.9746 60.0358L26.8837 60.3023L26.0391 60.4978L23.1711 59.787C22.2578 59.7607 21.347 59.6777 20.4438 59.5382L19.8984 60.1779C19.4007 60.219 18.9005 60.219 18.4028 60.1779C17.4038 59.8319 16.4231 59.4345 15.4644 58.9873L15.0245 58.8451L14.3559 58.6319C14.3559 59.1117 14.004 59.4315 13.74 59.3605C13.4761 59.2894 12.35 58.774 11.6462 58.4542L11.4351 58.0099L10.96 57.068C10.257 57.6145 9.38214 57.8859 8.49665 57.8322L8.10955 57.0858C8.04044 57.0051 7.95338 56.9421 7.85551 56.9019C7.75764 56.8618 7.65175 56.8456 7.5465 56.8548C6.35003 57.1569 6.03331 56.1262 5.22393 55.8418C5.04798 55.8418 4.85442 55.4153 4.9248 55.3265C4.99518 55.2376 5.27671 54.9177 4.76645 54.8822C4.52632 54.9004 4.28517 54.9004 4.04504 54.8822C3.78111 54.7933 3.55237 54.5623 3.28844 54.509C2.6902 54.509 2.65502 54.0647 2.93654 53.8515L3.60516 53.3539C3.07331 53.1602 2.56078 52.9163 2.07438 52.6253C1.74007 52.4298 0.473208 52.1455 0.314851 51.6479L0.0861041 51.2036C-0.19542 50.6527 0.279659 50.244 0.561184 49.8175C1.27395 50.1625 1.84608 50.7466 2.17994 51.4702L2.61983 52.181L2.49666 52.0211ZM88.7134 36.4715C88.3263 36.2405 88.2735 36.0094 88.5902 35.9561C89.3911 35.8039 90.175 35.5717 90.9304 35.2631L91.036 34.7122C91.1768 33.948 92.0917 33.9658 92.5668 33.5215C93.079 33.137 93.627 32.8037 94.2031 32.5264C94.7246 32.1869 95.2651 31.8784 95.8219 31.6023C96.8798 31.2697 97.7651 30.5289 98.2852 29.5408C98.4612 29.1321 98.4964 28.8122 99.1474 28.9011C99.7984 28.9899 99.7984 28.7589 99.8336 28.3679C99.8336 28.2435 100.432 28.2258 100.555 28.0658C100.678 27.9059 100.432 27.4261 100.555 27.4083L101.628 27.0884C102.227 26.2887 102.93 25.3113 103.194 25.0981C104.327 24.2557 105.501 23.4727 106.713 22.7523L107.593 21.6861L108.262 20.8864C109.353 20.2644 110.162 19.5358 110.021 19.2692L110.127 19.1804L110.303 19.0382C110.87 18.7267 111.348 18.2741 111.693 17.7232C112.133 17.1012 113.452 15.0042 113.646 14.5421C114.052 13.6384 114.353 12.6903 114.543 11.7166C114.543 11.0946 112.661 9.93947 112.414 9.93947C111.929 9.77554 111.404 9.77554 110.919 9.93947C110.549 10.1172 108.825 10.4193 107.857 10.6858C106.189 11.128 104.545 11.6559 102.93 12.2675C102.156 12.6406 99.1474 14.5066 97.8453 15.4307L96.2794 15.7861C96.1914 15.7861 96.1914 16.0171 96.0858 16.0882C95.6283 16.4614 94.7838 16.7635 94.731 17.1545C94.6078 18.043 93.5169 17.5632 93.2178 18.0608C93.2178 18.0608 92.8659 18.0608 92.8483 18.2029C92.4612 19.2692 91.1768 19.7135 90.4905 20.5487C89.8043 21.384 89.2765 22.3258 88.5023 23.1788C87.8173 23.8868 87.2259 24.6812 86.7427 25.5424C86.3205 26.3065 85.687 26.964 85.2823 27.7637L84.9128 28.4923C84.4218 29.0274 84.0019 29.6248 83.6636 30.2694L83.7691 30.3761C84.4378 30.9447 84.297 31.2113 83.382 31.3712C83.2413 31.3712 83.1709 31.9399 83.2061 32.242V32.473C83.2571 33.0168 83.2571 33.5642 83.2061 34.108L82.6958 34.7299L82.3087 35.1742C82.3166 35.8917 82.2096 36.6059 81.992 37.289C81.8161 37.5911 82.6958 38.4618 82.7134 38.7817C82.731 39.1016 84.5609 38.3374 85.5639 37.6444L86.6724 37.2712C87.1474 37.1113 87.6577 37.0046 88.1152 36.8269L88.7134 36.4715ZM307.44 31.3179C308.197 31.1047 308.496 30.8381 308.073 30.7315C307.651 30.6248 306.525 30.1983 306.314 30.3227C306.103 30.4471 305.082 30.6071 304.818 30.767C304.554 30.927 303.305 30.5893 302.689 30.6782C302.073 30.767 300.12 31.3001 299.452 31.3179C298.783 31.3357 297.288 32.3131 296.883 32.2065H296.513C296.267 32.2065 296.091 32.6152 295.827 32.704C295.563 32.7929 295.317 32.4553 295.176 32.5264L294.595 32.7929C294.063 33.1416 293.463 33.3718 292.836 33.4682C291.658 33.8162 290.51 34.262 289.405 34.801L288.42 35.0498L287.469 35.2986C287.082 35.814 286.502 36.0805 286.185 35.9028H285.974L285.481 36.0272C285.006 36.2938 284.038 36.8802 283.335 37.3423C282.631 37.8043 280.097 38.9239 279.64 39.2082L279.164 39.3859L278.725 39.5814C278.515 39.8312 278.286 40.063 278.038 40.2745C278.038 40.3811 277.915 40.5588 278.038 40.6299L278.144 40.7543C278.505 40.8699 278.876 40.9473 279.252 40.9853C280.1 41.0914 280.957 41.0914 281.804 40.9853L282.296 40.8609L282.895 40.7187C283.784 40.6302 284.68 40.6302 285.569 40.7187L286.343 40.5588L286.924 40.4344C287.277 40.8419 287.743 41.1329 288.261 41.2697L288.42 41.163L289.176 40.5766L291.745 40.4166L292.326 40.31C292.977 40.1856 293.681 39.7947 293.821 40.7721C293.821 40.7721 294.472 40.8965 294.56 40.7721L295.018 40.3278C295.423 39.7947 295.88 39.4392 296.056 39.5636C296.232 39.688 296.478 40.0079 296.302 40.079C296.126 40.1501 296.038 40.2567 296.865 40.079C297.692 39.9013 299.346 38.7462 299.399 39.066C299.452 39.3859 299.944 39.848 300.332 39.5103C300.887 38.9768 301.475 38.4783 302.091 38.0176C302.373 37.8932 303.252 37.6266 303.182 37.4489C303.112 37.2712 304.22 36.4004 304.836 35.9561L305.117 35.3519C305.276 35.0143 305.452 34.5167 305.751 34.4278C306.384 34.2679 306.472 34.0369 306.578 33.5393C306.683 33.0417 307.387 32.5797 307.44 32.0998V31.3179Z" fill="#124D00"/>
</svg>
